<?xml version="1.0" encoding="UTF-8"?>
<svg id="Layer_1" data-name="Layer 1" xmlns="http://www.w3.org/2000/svg" viewBox="0 0 209.43 155.79">
  <defs>
    <style>
      .cls-1 {
        fill: #4abeac;
        stroke-width: 0px;
      }
    </style>
  </defs>
  <path class="cls-1" d="m104.35,155.79l-55.08-55.08C9.15,60.59,64.23,5.5,104.35,45.62c42.41-42.41,97.5,12.67,55.08,55.08l-55.08,55.08Z"/>
  <path class="cls-1" d="m31.76,40.41c5.53-2.35,4.13-34.26-10.77-39.56C16.78-.65,10.52-.37,5.85,3.32,2.43,6.02-.75,11.1.16,15.77c.97,4.97,6.14,5.69,16.27,12.83,11.41,8.04,13.07,12.77,15.33,11.81Z"/>
  <path class="cls-1" d="m25.78,45.38c.62-3.54-14.53-11.98-19.42-7.75-2.57,2.22-2.52,8.11.19,10.55,1.96,1.77,4.82,1.28,10.09.39,4.89-.83,8.84-1.5,9.14-3.2Z"/>
  <path class="cls-1" d="m177.67,40.41c-5.53-2.35-4.13-34.26,10.77-39.56,4.21-1.5,10.47-1.22,15.14,2.47,3.42,2.7,6.61,7.78,5.7,12.45-.97,4.97-6.14,5.69-16.27,12.83-11.41,8.04-13.07,12.77-15.33,11.81Z"/>
  <path class="cls-1" d="m183.64,45.38c-.62-3.54,14.53-11.98,19.42-7.75,2.57,2.22,2.52,8.11-.19,10.55-1.96,1.77-4.82,1.28-10.09.39-4.89-.83-8.84-1.5-9.14-3.2Z"/>
</svg>